<svg width="512" height="512" viewBox="0 0 512 512" fill="none" xmlns="http://www.w3.org/2000/svg">
<path d="M298.497 95.7826C290.701 76.9538 279.271 59.8529 264.871 45.4529C250.471 31.0529 233.357 19.6224 214.541 11.8272C195.7 4.00641 175.527 0 155.149 0C150.554 0 145.997 0.2688 141.44 0.678401C140.084 0.806402 138.74 0.972802 137.396 1.1264C134.042 1.5104 130.701 2.0096 127.386 2.61121C126.054 2.85441 124.723 3.07201 123.392 3.35361C118.95 4.28801 114.534 5.33761 110.195 6.65601C110.17 6.65601 110.144 6.65601 110.118 6.68161C105.741 8.01282 101.453 9.58722 97.2161 11.3024C96.7425 11.4944 96.2561 11.6224 95.7825 11.8144C95.0017 12.1344 94.2849 12.5568 93.5169 12.8896C90.4065 14.2336 87.3473 15.6928 84.3136 17.2416C83.1104 17.856 81.8944 18.4576 80.704 19.1104C76.7104 21.2992 72.7808 23.6032 68.9792 26.1377C68.9536 26.1505 68.9408 26.1633 68.9152 26.1761C65.1264 28.7105 61.4912 31.4625 57.9584 34.3041C56.896 35.1617 55.872 36.0577 54.8224 36.9409C52.2496 39.1297 49.7408 41.3953 47.3216 43.7377C46.7072 44.3265 46.0416 44.8385 45.44 45.4401C45.0688 45.8113 44.7616 46.2209 44.4032 46.5921C41.2032 49.8561 38.1056 53.1969 35.2128 56.7297C35.1872 56.7681 35.1616 56.7937 35.136 56.8321C32.2688 60.3265 29.6064 63.9873 27.0592 67.7249C26.304 68.8385 25.5872 69.9777 24.8576 71.1169C23.0272 73.9585 21.2992 76.8513 19.648 79.7954C18.9824 80.9858 18.3168 82.1634 17.6768 83.3666C15.5648 87.3986 13.5808 91.4946 11.8271 95.7186L11.8015 95.7698V95.821C10.0351 100.045 8.53751 104.359 7.18071 108.698C6.77111 109.991 6.42551 111.296 6.05431 112.589C5.11991 115.84 4.31351 119.117 3.59671 122.407C3.31511 123.738 3.0079 125.056 2.7519 126.387C1.9199 130.842 1.2031 135.322 0.755097 139.827C0.755097 139.853 0.755097 139.891 0.755097 139.917C0.307096 144.461 0.127895 149.031 0.0894954 153.6C0.0894954 154.112 0.0126953 154.624 0.0126953 155.136H0.102295C0.102295 165.248 0.998297 175.386 2.9951 185.408C8.98551 215.501 23.7568 243.149 45.4528 264.845C67.1488 286.541 94.7969 301.313 124.89 307.303C154.983 313.293 186.176 310.221 214.528 298.471C242.881 286.733 267.111 266.842 284.161 241.332C301.21 215.821 310.311 185.818 310.311 155.136C310.311 134.759 306.305 114.586 298.497 95.757V95.7826ZM193.856 181.005C188.749 188.66 181.466 194.624 172.967 198.144C164.455 201.664 155.098 202.586 146.074 200.794C137.037 199.002 128.756 194.56 122.24 188.058C115.725 181.543 111.296 173.261 109.504 164.224C108.813 160.717 108.646 157.172 108.762 153.639C108.826 151.604 109.03 149.581 109.363 147.571C109.491 146.778 109.606 145.984 109.773 145.191C110.362 142.515 111.104 139.866 112.154 137.331C113.203 134.784 114.547 132.391 116.019 130.087C116.454 129.408 116.941 128.768 117.414 128.115C118.592 126.464 119.885 124.903 121.267 123.418C121.818 122.829 122.355 122.227 122.944 121.664C126.912 117.85 131.508 114.778 136.538 112.576C137.28 112.256 138.036 111.987 138.791 111.706C140.698 110.989 142.644 110.4 144.628 109.939C145.408 109.76 146.189 109.555 146.983 109.415C149.684 108.928 152.41 108.608 155.162 108.608C161.28 108.608 167.322 109.811 172.98 112.154C178.624 114.496 183.757 117.927 188.084 122.24C192.41 126.567 195.828 131.699 198.17 137.344C200.512 142.989 201.716 149.043 201.716 155.162C201.716 164.365 198.989 173.364 193.869 181.018L193.856 181.005Z" fill="url(#paint0_linear_1484_322)"/>
<path d="M284.162 443.056C301.211 417.546 310.312 387.543 310.312 356.861H201.704C201.704 366.064 198.978 375.063 193.858 382.717C188.75 390.372 181.48 396.336 172.968 399.856C164.456 403.376 155.099 404.298 146.075 402.506C137.051 400.714 128.757 396.272 122.242 389.77C115.726 383.255 111.298 374.973 109.506 365.936C107.714 356.9 108.635 347.543 112.155 339.043C115.675 330.544 121.64 323.274 129.294 318.154C136.936 313.047 145.909 310.32 155.086 310.307H155.15V201.699H155.112C124.443 201.699 94.4527 210.8 68.9551 227.85C57.0767 235.786 46.4271 245.271 37.2495 256.01C26.7022 268.349 18.0878 282.327 11.8158 297.482C0.0654244 325.834 -3.00657 357.028 2.98383 387.12C8.97424 417.213 23.7454 444.861 45.4415 466.557C67.1375 488.253 94.7855 503.037 124.878 509.015C154.971 515.005 186.165 511.933 214.517 500.183C242.869 488.445 267.099 468.554 284.149 443.044L284.162 443.056Z" fill="url(#paint1_linear_1484_322)"/>
<path d="M356.85 201.699C398.002 201.699 437.464 218.045 466.559 247.139C495.653 276.234 511.999 315.696 511.999 356.848C511.999 398 495.653 437.463 466.559 466.557C437.464 495.652 398.002 511.997 356.85 511.997V403.389C369.189 403.389 381.029 398.487 389.758 389.757C398.488 381.028 403.39 369.188 403.39 356.848C403.39 344.509 398.488 332.669 389.758 323.939C381.029 315.21 369.189 310.307 356.85 310.307V201.699Z" fill="url(#paint2_linear_1484_322)"/>
<path d="M356.849 511.997C315.697 511.997 276.235 495.652 247.14 466.557C218.046 437.463 201.7 398 201.7 356.848C201.7 315.696 218.046 276.234 247.14 247.139C276.235 218.045 315.697 201.699 356.849 201.699V310.307C344.51 310.307 332.67 315.21 323.94 323.939C315.211 332.669 310.308 344.509 310.308 356.848C310.308 369.188 315.211 381.028 323.94 389.757C332.67 398.487 344.51 403.389 356.849 403.389V511.997Z" fill="#1DC2C6"/>
<path d="M310.299 155.161H201.691C201.691 155.545 201.691 155.929 201.679 156.313C201.538 162.009 200.347 167.654 198.146 172.979C196.968 175.808 195.535 178.508 193.845 181.03C193.627 181.35 193.41 181.67 193.192 181.977C189.915 186.636 185.781 190.669 181.007 193.869C178.459 195.571 175.759 197.005 172.955 198.169C172.597 198.323 172.239 198.464 171.88 198.592C166.568 200.64 160.898 201.702 155.138 201.702V310.31C175.605 310.31 195.778 306.266 214.517 298.496C215.093 298.266 215.656 298.022 216.219 297.779C224.949 294.042 233.359 289.485 241.333 284.16C258.357 272.781 272.872 258.214 284.136 241.357C284.482 240.845 284.815 240.333 285.16 239.808C290.344 231.846 294.811 223.385 298.472 214.528C306.306 195.609 310.287 175.436 310.287 155.148L310.299 155.161Z" fill="#9BE183"/>
<path d="M201.7 155.151C201.7 124.469 210.801 94.4656 227.851 68.9552C244.9 43.4447 269.131 23.5535 297.483 11.8158C325.822 0.0654237 357.029 -3.00658 387.121 2.98384C417.214 8.97425 444.862 23.7455 466.558 45.4415C488.254 67.1376 503.038 94.7856 509.016 124.878C515.006 154.971 511.934 186.165 500.184 214.517C488.446 242.869 468.555 267.1 443.045 284.149C417.534 301.199 387.531 310.3 356.849 310.3V201.692C366.053 201.692 375.051 198.965 382.705 193.845C390.36 188.738 396.325 181.468 399.845 172.956C403.365 164.443 404.286 155.087 402.494 146.063C400.702 137.039 396.261 128.744 389.758 122.229C383.243 115.714 374.961 111.285 365.925 109.493C356.9 107.701 347.531 108.622 339.032 112.142C330.532 115.662 323.262 121.627 318.142 129.282C313.022 136.936 310.296 145.935 310.296 155.138H201.688L201.7 155.151Z" fill="url(#paint3_linear_1484_322)"/>
<defs>
<linearGradient id="paint0_linear_1484_322" x1="429.594" y1="65.4337" x2="88.3456" y2="176.999" gradientUnits="userSpaceOnUse">
<stop offset="0.637" stop-color="#F16930"/>
<stop offset="0.959" stop-color="#F8C70E"/>
</linearGradient>
<linearGradient id="paint1_linear_1484_322" x1="137.537" y1="354.954" x2="291.138" y2="399.754" gradientUnits="userSpaceOnUse">
<stop stop-color="#9BE183"/>
<stop offset="1" stop-color="#256B52"/>
</linearGradient>
<linearGradient id="paint2_linear_1484_322" x1="416" y1="383.997" x2="379.646" y2="286.026" gradientUnits="userSpaceOnUse">
<stop stop-color="#1DC2C6"/>
<stop offset="1" stop-color="#23336B"/>
</linearGradient>
<linearGradient id="paint3_linear_1484_322" x1="419.147" y1="209.756" x2="345.601" y2="128.002" gradientUnits="userSpaceOnUse">
<stop offset="0.245" stop-color="#1DC1C5"/>
<stop offset="1" stop-color="#9CE182"/>
</linearGradient>
</defs>
</svg>
